<?xml version="1.0" encoding="utf-8"?>
<!-- Generator: Adobe Illustrator 21.1.0, SVG Export Plug-In . SVG Version: 6.00 Build 0)  -->
<svg version="1.1" id="Layer_1" xmlns="http://www.w3.org/2000/svg" xmlns:xlink="http://www.w3.org/1999/xlink" x="0px" y="0px"
	 width="1440px" height="864px" viewBox="0 0 1440 864" style="enable-background:new 0 0 1440 864;" xml:space="preserve">
<style type="text/css">
	.st0{fill:none;stroke:#3B2314;stroke-width:0.36;stroke-linecap:round;stroke-linejoin:round;stroke-miterlimit:10;}
	.st1{enable-background:new    ;}
	.st2{fill:none;stroke:#EC1C24;stroke-width:0.36;stroke-miterlimit:10;}
</style>
<g>
	<g id="LINE_3_">
		<polyline class="st0" points="188.3,39.4 188.3,61.3 179.7,61.3 179.7,39.4 188.3,39.4 188.3,61.3 179.7,61.3 		"/>
	</g>
	<g id="LINE_7_">
		<rect x="179.7" y="117.3" class="st0" width="8.6" height="18.1"/>
	</g>
	<g id="LINE_11_">
		<rect x="179.7" y="154.3" class="st0" width="8.6" height="18.1"/>
	</g>
	<g id="LINE_15_">
		<rect x="179.7" y="80.2" class="st0" width="8.6" height="18.1"/>
	</g>
	<g id="LINE_19_">
		<rect x="179.7" y="191.3" class="st0" width="8.6" height="18.1"/>
	</g>
	<g id="LINE_87_">
		<path class="st0" d="M26.3,191.3v-18.9h9v-18.1h-9v-18.9h9v-18.1h-9v-19h9V80.2h-9V61.3h9V39.4h-9v-4.8c0-8.1,6.5-14.6,14.6-14.6
			h286.2c8.1,0,14.6,6.5,14.6,14.6v4.8h-9v21.8h9v18.9h-9v18.1h9v18.9h-9v18.1h9v18.9h-9v18.1h9v18.9h-9v18.1h9v18.9h-9v18.1h9v9.4
			h-42.4v-9h-32.6v9h-33.4v-9h-32.6v9h-33.4v-9h-32.6v9h-33.4v-9H68.7v9H26.3v-9.4h9v-18.1h-9v-18.9h9v-18.1h-9V191.3z"/>
	</g>
</g>
<g>
	<g id="LINE_1_">
		<rect x="179.7" y="321.3" class="st0" width="8.6" height="25.5"/>
	</g>
	<g id="LINE_63_">
		<polygon class="st0" points="101.7,408 68.3,408 68.3,399 35.3,399 35.3,373.1 26.3,373.1 26.3,346.8 35.3,346.8 35.3,321.3 
			26.3,321.3 26.3,294.9 35.3,294.9 35.3,269 68.3,269 68.3,260 101.7,260 101.7,269 134.3,269 134.3,260 167.7,260 167.7,269 
			179.7,269 179.7,294.9 188.3,294.9 188.3,269 200.3,269 200.3,260 233.7,260 233.7,269 266.3,269 266.3,260 299.7,260 299.7,269 
			332.7,269 332.7,294.9 341.7,294.9 341.7,321.3 332.7,321.3 332.7,346.8 341.7,346.8 341.7,373.1 332.7,373.1 332.7,399 
			299.7,399 299.7,408 266.3,408 266.3,399 233.7,399 233.7,408 200.3,408 200.3,399 188.3,399 188.3,373.1 179.7,373.1 179.7,399 
			167.7,399 167.7,408 134.3,408 134.3,399 101.7,399 		"/>
	</g>
</g>
<g>
	<g id="LINE_27_">
		<polygon class="st0" points="200.7,443.1 167.3,443.1 167.3,434.1 134.7,434.1 134.7,443.1 101.3,443.1 101.3,434.1 68.7,434.1 
			68.7,443.1 26.3,443.1 26.3,433.6 35.3,433.6 35.3,423.3 26.3,423.3 26.3,412 341.7,412 341.7,423.3 332.7,423.3 332.7,433.6 
			341.7,433.6 341.7,443.1 299.3,443.1 299.3,434.1 266.7,434.1 266.7,443.1 233.3,443.1 233.3,434.1 200.7,434.1 		"/>
	</g>
</g>
<g>
	<g id="LINE_51_">
		<polygon class="st0" points="28.6,447 173.1,447 173.1,454.7 182.1,454.7 182.1,462.9 173.1,462.9 173.1,478 182.1,478 
			182.1,486.1 173.1,486.1 173.1,501.7 182.1,501.7 182.1,509.3 173.1,509.3 173.1,532.1 182.1,532.1 182.1,540.3 173.1,540.3 
			173.1,555.4 182.1,555.4 182.1,563.5 173.1,563.5 173.1,579.1 182.1,579.1 182.1,586.7 173.1,586.7 173.1,602.2 28.6,602.2 
			28.6,586.7 19.6,586.7 19.6,578.6 28.6,578.6 28.6,563.5 19.6,563.5 19.6,555.4 28.6,555.4 28.6,540.3 19.6,540.3 19.6,532.1 
			28.6,532.1 28.6,509.3 19.6,509.3 19.6,501.2 28.6,501.2 28.6,486.1 19.6,486.1 19.6,478 28.6,478 28.6,462.9 19.6,462.9 
			19.6,454.7 28.6,454.7 		"/>
	</g>
</g>
<g>
	<g id="LINE_2_">
		<polygon class="st0" points="194.9,594.5 185.9,594.5 185.9,586.3 194.9,586.3 194.9,571.2 185.9,571.2 185.9,563.1 194.9,563.1 
			194.9,548 185.9,548 185.9,539.9 194.9,539.9 194.9,517.1 185.9,517.1 185.9,508.9 194.9,508.9 194.9,493.8 185.9,493.8 
			185.9,485.7 194.9,485.7 194.9,470.6 185.9,470.6 185.9,462.5 194.9,462.5 194.9,447 339.4,447 339.4,462.5 348.4,462.5 
			348.4,470.1 339.4,470.1 339.4,485.7 348.4,485.7 348.4,493.8 339.4,493.8 339.4,508.9 348.4,508.9 348.4,517.1 339.4,517.1 
			339.4,539.9 348.4,539.9 348.4,547.5 339.4,547.5 339.4,563.1 348.4,563.1 348.4,571.2 339.4,571.2 339.4,586.3 348.4,586.3 
			348.4,594.5 339.4,594.5 339.4,602.2 194.9,602.2 		"/>
	</g>
</g>
<g>
	<g id="LINE_10_">
		
			<rect x="466.3" y="141.7" transform="matrix(0.2249 -0.9744 0.9744 0.2249 222.0246 571.0177)" class="st0" width="7.3" height="8.6"/>
	</g>
	<g id="LINE_9_">
		
			<rect x="471.5" y="119.1" transform="matrix(0.2249 -0.9744 0.9744 0.2249 248.0592 558.6285)" class="st0" width="7.3" height="8.6"/>
	</g>
	<g id="LINE_8_">
		
			<rect x="476.7" y="96.5" transform="matrix(0.2249 -0.9744 0.9744 0.2249 274.0938 546.2393)" class="st0" width="7.3" height="8.6"/>
	</g>
	<g id="LINE_6_">
		
			<rect x="448.9" y="217.2" transform="matrix(0.2249 -0.9744 0.9744 0.2249 134.9974 612.613)" class="st0" width="7.3" height="8.6"/>
	</g>
	<g id="LINE_5_">
		
			<rect x="454.1" y="194.5" transform="matrix(0.2249 -0.9744 0.9744 0.2249 161.1 600.0844)" class="st0" width="7.3" height="8.6"/>
	</g>
	<g id="LINE_23_">
		<polyline class="st0" points="468,173.6 466.3,180.7 458,178.8 459.6,171.7 468,173.6 459.6,171.7 458,178.8 		"/>
	</g>
	<g id="LINE_4_">
		<path class="st0" d="M541.7,47.9h-9V66h9v19h-9v18.1h9V122h-9v18.1h9V159h-9v18.1h9V196h-9v18.1h9v22.7h-103l34.2-148.2
			c3.4-17-7.6-33.6-24.6-37c-1.5-0.3-3.1-0.5-4.7-0.6h-40.9V40.2h-9V29h9v-9H429v9h25.5v-9h26.3v9h25.5v-9h26.3v9h9v18.9H541.7z"/>
	</g>
</g>
<g>
	<g id="LINE_18_">
		
			<rect x="401.4" y="195.8" transform="matrix(0.2249 -0.9744 0.9744 0.2249 121.7694 553.3621)" class="st0" width="14.6" height="8.6"/>
	</g>
	<g id="LINE_17_">
		
			<rect x="406.3" y="172.9" transform="matrix(0.2249 -0.9744 0.9744 0.2249 148.1589 540.6328)" class="st0" width="15.1" height="8.6"/>
	</g>
	<g id="LINE_16_">
		
			<rect x="411.6" y="150.3" transform="matrix(0.2249 -0.9744 0.9744 0.2249 174.1935 528.2437)" class="st0" width="15.1" height="8.6"/>
	</g>
	<g id="LINE_14_">
		
			<rect x="418.6" y="120.4" transform="matrix(0.2249 -0.9744 0.9744 0.2249 208.6306 511.7079)" class="st0" width="14.6" height="8.6"/>
	</g>
	<g id="LINE_13_">
		
			<rect x="429" y="74.9" transform="matrix(0.2249 -0.9744 0.9744 0.2249 261.1527 486.7876)" class="st0" width="15.1" height="8.6"/>
	</g>
	<g id="LINE_12_">
		
			<rect x="423.8" y="97.5" transform="matrix(0.2249 -0.9744 0.9744 0.2249 235.1181 499.1768)" class="st0" width="15.1" height="8.6"/>
	</g>
	<g id="LINE_55_">
		<path class="st0" d="M348.2,174.9h9v-18.1h-9v-18.9h9v-18.1h-9v-18.9h9V82.8h-9V60.1h103L417,208.3c-3.4,17,7.6,33.6,24.6,37
			c1.5,0.3,3.1,0.5,4.7,0.6h40.9v31h-26.3v-9h-25.5v9h-26.3v-9h-25.5v9h-26.3v-46h-9V212h9v-18.1h-9v-19H348.2z"/>
	</g>
</g>
<g>
	<g id="LINE_28_">
		
			<rect x="418.1" y="338.6" transform="matrix(0.2249 -0.9744 0.9744 0.2249 -6.1109 676.8202)" class="st0" width="8.6" height="7.3"/>
	</g>
	<g id="LINE_26_">
		
			<rect x="440.7" y="343.8" transform="matrix(0.2249 -0.9744 0.9744 0.2249 6.3228 702.9405)" class="st0" width="8.6" height="7.3"/>
	</g>
	<g id="LINE_25_">
		
			<rect x="463.5" y="349.4" transform="matrix(0.2249 -0.9744 0.9744 0.2249 18.8094 729.3422)" class="st0" width="8.6" height="6.8"/>
	</g>
	<g id="LINE_24_">
		
			<rect x="539" y="366.7" transform="matrix(0.2249 -0.9744 0.9744 0.2249 60.4635 816.2035)" class="st0" width="8.6" height="6.8"/>
	</g>
	<g id="LINE_22_">
		
			<rect x="493.4" y="356" transform="matrix(0.2249 -0.9744 0.9744 0.2249 35.3451 763.7792)" class="st0" width="8.6" height="7.3"/>
	</g>
	<g id="LINE_21_">
		
			<rect x="516.2" y="361.3" transform="matrix(0.2249 -0.9744 0.9744 0.2249 47.8324 790.012)" class="st0" width="8.6" height="7.3"/>
	</g>
	<g id="LINE_20_">
		<path class="st0" d="M358.1,318.1h-9v-26.3h9v-9H377v9h18.1v-9H414v9h18.1v-9H451v9h18.1v-9H488v9h18.1v-9H525v9h18.1v-9h22.7v103
			l-148.2-34.2c-17-3.4-33.6,7.6-37,24.6c-0.3,1.5-0.5,3.1-0.6,4.7v40.9h-10.8v9H358v-9h-9v-26.3h9V370h-9v-26.3h9v-25.6H358.1z"/>
	</g>
</g>
<g class="st1">
	<path class="st2" d="M77.9,478.3v18.5h-3.7v-18.5H77.9z M82.5,494.4v-13.8h-3.7v-2.2h4.9c0,0,1.7,1.2,2.5,1.7l0.1,0.1v14.6
		l-2.6,1.8h-4.9v-2.3H82.5z"/>
	<path class="st2" d="M91.2,478.3v18.5h-3.7v-18.5H91.2z M97.4,485.2v2.3H92v-2.3H97.4z M99.7,478.4v2.2h-7.5v-2.2H99.7z M96,494.3
		v-3.7h3.7v6.1h-7.5v-2.5H96z"/>
	<path class="st2" d="M104.7,478.3v7.1h3.7v2.1h-3.7v9.2h-3.8v-18.5H104.7z M105.5,480.6v-2.2h4.9c0,0,1.7,1.2,2.5,1.7l0.1,0.1v16.5
		h-3.7v-16.2H105.5z"/>
	<path class="st2" d="M117.9,478.3v18.5h-3.7v-18.5H117.9z M122.5,494.4v-13.8h-3.7v-2.2h4.9c0,0,1.7,1.2,2.5,1.7l0.1,0.1v14.6
		l-2.6,1.8h-4.9v-2.3H122.5z"/>
</g>
<g class="st1">
	<path class="st2" d="M220.4,480.3l0.1-0.1c0.8-0.5,2.5-1.7,2.5-1.7h1.1v18.3h-1.1l-2.6-1.8V480.3z M225,480.6v-2.2h4.9
		c0,0,1.7,1.2,2.5,1.7l0.1,0.1v4.9h-3.7v-4.6H225z M228.9,494.4v-6.8h3.7v7.2l-2.6,1.8H225v-2.3H228.9z"/>
	<path class="st2" d="M237.5,478.4v18.3h-3.7v-18.3H237.5z M238.4,487.5v-2.4h3.9v-6.6h3.7v18.3h-3.7v-9.2H238.4z"/>
	<path class="st2" d="M251,478.3v7.1h3.7v2.1H251v9.2h-3.8v-18.5H251z M251.7,480.6v-2.2h4.9c0,0,1.7,1.2,2.5,1.7l0.1,0.1v16.5h-3.7
		v-16.2H251.7z"/>
	<path class="st2" d="M264.3,478.3v18.5h-3.8v-18.5H264.3z M265.1,487.4v-2.2h2.2v-4.6h-2.2v-2.2h3.4c0,0,1.7,1.2,2.5,1.7l0.1,0.1
		v5.2l-0.1,0.3c0,0,0,0,0,0.1l1.7,1.2v9.5h-3.7v-9.1L265.1,487.4z"/>
	<path class="st2" d="M273.8,480.3l0.1-0.1c0.8-0.5,2.5-1.7,2.5-1.7h6.9c0,0,1.7,1.2,2.5,1.7l0.1,0.1v3.4h-3.7v-2.9h-4.6v13.7h4.5
		v-6.9h-3.7v-2.1h4.9c0,0,1.7,1.2,2.5,1.7l0.1,0.2v7.5l-2.6,2h-6.9l-2.6-2V480.3z"/>
	<path class="st2" d="M290.9,478.3v18.5h-3.7v-18.5H290.9z M297,485.2v2.3h-5.4v-2.3H297z M299.3,478.4v2.2h-7.5v-2.2H299.3z
		 M295.6,494.3v-3.7h3.7v6.1h-7.5v-2.5H295.6z"/>
	<path class="st2" d="M304.2,478.3v18.5h-3.7v-18.5H304.2z M308.8,494.4v-13.8h-3.7v-2.2h4.9c0,0,1.7,1.2,2.5,1.7l0.1,0.1v14.6
		l-2.6,1.8h-4.9v-2.3H308.8z"/>
</g>
</svg>
